<svg xmlns="http://www.w3.org/2000/svg" xmlns:xlink="http://www.w3.org/1999/xlink" width="27.037" height="13.997" viewBox="0 0 27.037 13.997">
  <defs>
    <clipPath id="clip-path">
      <rect id="사각형_5" data-name="사각형 5" width="27.037" height="13.997" transform="translate(0 0)" fill="#fff"/>
    </clipPath>
  </defs>
  <g id="그룹_5" data-name="그룹 5" clip-path="url(#clip-path)">
    <path id="패스_19" data-name="패스 19" d="M21.544,0h-.172C15.494-.043,10.816,2.708,7.152,5.776A15.756,15.756,0,0,1,4.228,1.969H1.335a23.882,23.882,0,0,0,4.1,5.348A35.976,35.976,0,0,0,0,13.578H4.384l0-.007A19.272,19.272,0,0,1,7.466,9.127C10.581,11.543,14.887,13.709,21.7,14V7.758H19.322v3.731A19.062,19.062,0,0,1,9.049,7.412c3.171-3.16,7.873-6.294,12.312-6.167,2.287.042,3.467,1.106,3.5,2.2.079.959-.527,2.322-2.718,2.322h-.082c-1.228,0-2.231-.36-2.231-1.428V4.209A1.12,1.12,0,0,1,21.051,3.2h.159c.509,0,.767.128.767.379V3.61c0,.126,0,.26-.3.315a.838.838,0,0,0-.562.278.425.425,0,0,0-.041.364c.139.293.46.385.892.385.5,0,2.005-.15,2.005-1.312V3.587c0-1.344-1.958-1.6-2.781-1.6h-.1c-3.043,0-3.374,1.821-3.374,2.275v.126c0,1.688,2.19,2.626,4.285,2.6h.374C25.561,7,27.03,5.42,27.03,3.859l.007-.19C27.01,1.443,24.46,0,21.544,0" transform="translate(0 0)" fill="#fff"/>
    <rect id="사각형_4" data-name="사각형 4" width="2.36" height="6.238" transform="translate(23.389 7.759)" fill="#fff"/>
  </g>
</svg>
