<svg xmlns="http://www.w3.org/2000/svg" xmlns:xlink="http://www.w3.org/1999/xlink" width="188.875" height="32.372" viewBox="0 0 188.875 32.372">
  <defs>
    <clipPath id="clip-path">
      <rect id="사각형_186" data-name="사각형 186" width="188.875" height="32.372" fill="#fff"/>
    </clipPath>
  </defs>
  <g id="그룹_518" data-name="그룹 518" clip-path="url(#clip-path)">
    <path id="패스_3323" data-name="패스 3323" d="M49.828,0h-.4C35.836-.1,25.017,6.262,16.542,13.36A36.439,36.439,0,0,1,9.779,4.554H3.089a55.209,55.209,0,0,0,9.474,12.369A83.221,83.221,0,0,0,0,31.4H10.141l.008-.016a44.55,44.55,0,0,1,7.12-10.277c7.2,5.587,17.162,10.6,32.919,11.261V17.943h-5.5v8.63A44.091,44.091,0,0,1,20.93,17.144C28.264,9.835,39.138,2.586,49.406,2.88c5.29.1,8.017,2.557,8.1,5.082.182,2.216-1.219,5.37-6.287,5.37h-.189c-2.841,0-5.161-.833-5.161-3.3V9.736a2.59,2.59,0,0,1,2.82-2.341h.367c1.177,0,1.776.3,1.776.876V8.35c0,.292.006.6-.7.728a1.936,1.936,0,0,0-1.3.643.987.987,0,0,0-.095.843c.32.676,1.064.891,2.062.891,1.165,0,4.638-.346,4.638-3.034V8.3c0-3.108-4.529-3.707-6.431-3.707h-.243c-7.036,0-7.8,4.212-7.8,5.261v.292c0,3.9,5.066,6.073,9.909,6h.865c7.388.04,10.785-3.611,10.785-7.221l.014-.439C62.47,3.338,56.572,0,49.828,0" transform="translate(0 0)" fill="#fff"/>
    <rect id="사각형_185" data-name="사각형 185" width="5.459" height="14.429" transform="translate(54.095 17.943)" fill="#fff"/>
    <path id="패스_3333" data-name="패스 3333" d="M102.66,46.671H99.268v-11H107v1.8h-5.577v2.762h5.367v1.8h-5.367V44.87h1.731a29.081,29.081,0,0,0,5.909-.682v1.765a27.4,27.4,0,0,1-6.4.717M109.688,34.4h2.168V50.6h-2.168ZM84.215,47.213l-1.573-1.259c2.937-2.185,4.913-5.21,4.563-10.594h2.238a18.845,18.845,0,0,1-.35,4.231,11.474,11.474,0,0,0,4.528,5.839L92.17,46.9A12.481,12.481,0,0,1,88.2,42.388a12.012,12.012,0,0,1-3.986,4.825M94.443,34.4h2.168V50.6H94.443ZM65.3,35.744h8.147V37.58H67.5v7.238h1.486a27.934,27.934,0,0,0,5.577-.7v1.8a25.228,25.228,0,0,1-6.084.752H65.3Zm6.067,6.084v-1.8h4.266V34.4H77.8V50.6H75.631V41.828Zm-19.022-.647c0-2.5-.752-4.021-2.045-4.021s-2.046,1.521-2.046,4.021S49,45.2,50.3,45.2s2.045-1.521,2.045-4.021m2.2,0c0,3.776-1.7,5.875-4.248,5.875s-4.249-2.1-4.249-5.875,1.7-5.874,4.249-5.874,4.248,2.1,4.248,5.874M56.82,34.4h2.168V50.6H56.82ZM45.578,42.283H43.043V50.6H40.875V34.4h2.168V40.43h2.535ZM36.8,41.531a14.021,14.021,0,0,0,3.724,3.881L38.97,46.863a15.964,15.964,0,0,1-3.3-3.5,17.789,17.789,0,0,1-4.161,4l-1.573-1.4c3.532-2.151,5.787-5.769,5.979-8.357-1.1.07-2.22.07-3.2.07H30.962V35.779h2.71c1.486,0,3.025,0,4.668-.035A12.546,12.546,0,0,1,36.8,41.531M28.1,50.29H17.815V45.255H20v3.2H28.1Zm2.1-9.581h-2.43v5.56H25.612V34.4h2.151v4.458h2.43ZM16.049,44.258l-1.4-1.364a7.918,7.918,0,0,0,4.266-7.99h2.2a13.015,13.015,0,0,1-.332,3.165,9.714,9.714,0,0,0,4.3,4.248L23.742,43.8a10.962,10.962,0,0,1-3.829-3.461,9.471,9.471,0,0,1-3.864,3.916M6.731,40.01A17.516,17.516,0,0,0,10.07,41.6L8.759,43.017a13.575,13.575,0,0,1-3.374-1.8,13.5,13.5,0,0,1-4.074,2.168L0,41.986c3.217-.979,5.157-2.728,5.647-3.689-.979.035-1.941.035-2.9.035h-1.7V36.688H3.776c1.591,0,3.182,0,4.79-.035A6.754,6.754,0,0,1,6.731,40.01M2.413,34.328H7.465v1.661H2.413Zm11.154,16.1H2.9V46.251h8.2v-.839H2.9V43.664h10.35v4.283H5.017v.735h8.549ZM8.689,40.517V38.734h2.4V34.4h2.168v8.584H11.084V40.517Z" transform="translate(73.793 -18.3)" fill="#fff"/>
  </g>
</svg>
